<svg width="1200" height="800" viewBox="0 0 1200 800" fill="none" xmlns="http://www.w3.org/2000/svg">
  <rect width="1200" height="800" rx="48" fill="#0B1220"/>
  <path d="M1198 151C1074 81 925 40 766 40C384 40 111 282 27 592C7 665 0 732 0 800H1200L1198 151Z" fill="url(#paint0_linear)" fill-opacity="0.95"/>
  <ellipse cx="825" cy="236" rx="230" ry="88" fill="#FF7A00" fill-opacity="0.15"/>
  <g filter="url(#filter0_d)">
    <path d="M294 487C308 448 346 421 388 421H718C756 421 791 441 809 474L844 536C851 549 842 565 827 565H258C241 565 231 549 237 533L294 487Z" fill="#F6F8FB"/>
    <path d="M351 421L419 342C429 330 444 323 460 323H650C672 323 691 336 700 356L726 421H351Z" fill="#DCE4F0"/>
    <circle cx="369" cy="565" r="56" fill="#111827"/>
    <circle cx="369" cy="565" r="27" fill="#6B7280"/>
    <circle cx="741" cy="565" r="56" fill="#111827"/>
    <circle cx="741" cy="565" r="27" fill="#6B7280"/>
    <rect x="427" y="352" width="111" height="56" rx="10" fill="#BFD2EA"/>
    <rect x="549" y="352" width="129" height="56" rx="10" fill="#BFD2EA"/>
    <rect x="748" y="491" width="66" height="20" rx="10" fill="#FF7A00"/>
    <rect x="286" y="489" width="83" height="18" rx="9" fill="#A8B6C9"/>
  </g>
  <defs>
    <filter id="filter0_d" x="197" y="295" width="688" height="380" filterUnits="userSpaceOnUse" color-interpolation-filters="sRGB">
      <feFlood flood-opacity="0" result="BackgroundImageFix"/>
      <feColorMatrix in="SourceAlpha" type="matrix" values="0 0 0 0 0 0 0 0 0 0 0 0 0 0 0 0 0 0 127 0" result="hardAlpha"/>
      <feOffset dy="24"/>
      <feGaussianBlur stdDeviation="20"/>
      <feComposite in2="hardAlpha" operator="out"/>
      <feColorMatrix type="matrix" values="0 0 0 0 0.0196078 0 0 0 0 0.0705882 0 0 0 0 0.156863 0 0 0 0.28 0"/>
      <feBlend mode="normal" in2="BackgroundImageFix" result="effect1_dropShadow_1_2"/>
      <feBlend mode="normal" in="SourceGraphic" in2="effect1_dropShadow_1_2" result="shape"/>
    </filter>
    <linearGradient id="paint0_linear" x1="150" y1="120" x2="983" y2="709" gradientUnits="userSpaceOnUse">
      <stop stop-color="#132238"/>
      <stop offset="1" stop-color="#1F4B8F"/>
    </linearGradient>
  </defs>
</svg>
